<svg width="89" height="77" viewBox="0 0 89 77" fill="none" xmlns="http://www.w3.org/2000/svg">
<path fill-rule="evenodd" clip-rule="evenodd" d="M32.6999 0.786316H11.5505C11.1985 0.786316 10.8724 0.971374 10.692 1.27357L0.141457 18.9395C-0.0460396 19.2535 -0.0472236 19.6447 0.138369 19.9598L10.6929 37.878C10.8726 38.1831 11.2004 38.3704 11.5545 38.3704H32.6959C33.0537 38.3704 33.3842 38.1792 33.5626 37.8691L43.8717 19.9509C44.0504 19.6403 44.0493 19.2579 43.8687 18.9484L33.5636 1.28244C33.3844 0.975227 33.0555 0.786316 32.6999 0.786316ZM55.2503 38.6296H34.101C33.749 38.6296 33.4229 38.8147 33.2424 39.1169L22.6919 56.7828C22.5044 57.0968 22.5032 57.488 22.6888 57.8031L33.2433 75.7213C33.4231 76.0264 33.7508 76.2137 34.105 76.2137H55.2463C55.6041 76.2137 55.9347 76.0225 56.1131 75.7124L66.4222 57.7942C66.6009 57.4836 66.5998 57.1012 66.4192 56.7916L56.1141 39.1257C55.9349 38.8185 55.606 38.6296 55.2503 38.6296ZM56.3923 0.786316H77.5416C77.8973 0.786316 78.2262 0.975227 78.4054 1.28244L88.7105 18.9484C88.891 19.2579 88.8922 19.6403 88.7135 19.9509L78.9531 36.9154C78.5753 37.5721 77.6327 37.5864 77.2351 36.9414L66.7449 19.924C66.5628 19.6286 66.2406 19.4488 65.8936 19.4488H46.4411C45.6647 19.4488 45.1844 18.6026 45.5825 17.936L55.5337 1.27357C55.7142 0.971374 56.0403 0.786316 56.3923 0.786316Z" fill="#8768F8"/>
</svg>
